REM DATE 2022-10-29
REM RECORDED_BY "rekordbox-dj"
TITLE "Music and Love"
PERFORMER "The Acidic Rabbi"
FILE "01 Music and Love.wav" WAVE
	TRACK 01 AUDIO
		TITLE "Channel"
		REM PERFORMER "Nile Delta, Knightlife, Chicken Lips, Tornado Wallace"
		FILE "/Users/benlazar/Downloads/TunesKitMusicConverter/Channel.mp3" WAVE
		INDEX 01 00:00:00
	TRACK 02 AUDIO
		TITLE "Westcoast Boogie"
		PERFORMER "Bronx Cheer"
		FILE "/Users/benlazar/Downloads/TunesKitMusicConverter/Westcoast Boogie(1).mp3" WAVE
		INDEX 01 00:03:48
	TRACK 03 AUDIO
		TITLE "Boogie Fever"
		PERFORMER "Paul Parsons"
		FILE "/Users/benlazar/Downloads/TunesKitMusicConverter/Boogie Fever(1).mp3" WAVE
		INDEX 01 00:07:14
	TRACK 04 AUDIO
		TITLE "What It Is"
		PERFORMER "Block & Crown, Paul Parsons"
		FILE "/Users/benlazar/Downloads/TunesKitMusicConverter/What It Is(1).mp3" WAVE
		INDEX 01 00:11:26
	TRACK 05 AUDIO
		TITLE "Come On"
		PERFORMER "MartinoResi, Chris Brooks"
		FILE "/Users/benlazar/Downloads/TunesKitMusicConverter/Come On.mp3" WAVE
		INDEX 01 00:15:19
	TRACK 06 AUDIO
		TITLE "Simple Song"
		PERFORMER "Block & Crown, Bronx Cheer"
		FILE "/Users/benlazar/Downloads/TunesKitMusicConverter/Simple Song.mp3" WAVE
		INDEX 01 00:19:19
	TRACK 07 AUDIO
		TITLE "Professional Cheater"
		PERFORMER "Block & Crown"
		FILE "/Users/benlazar/Downloads/TunesKitMusicConverter/Professional Cheater(1).mp3" WAVE
		INDEX 01 00:23:31
	TRACK 08 AUDIO
		TITLE "Show Me Some Love (feat. Sadie Walker)"
		PERFORMER "Honey Dijon, Channel Tres, Sadie Walker"
		FILE "/Users/benlazar/Downloads/TunesKitMusicConverter/Show Me Some Love (feat. Sadie Walker).mp3" WAVE
		INDEX 01 00:27:17
	TRACK 09 AUDIO
		TITLE "Yeah The Girls"
		PERFORMER "FISHER, MERYLL"
		FILE "/Users/benlazar/Downloads/TunesKitMusicConverter/Yeah The Girls(1).mp3" WAVE
		INDEX 01 00:31:03
	TRACK 10 AUDIO
		TITLE "Disco Pop"
		PERFORMER "Max Styler"
		FILE "/Users/benlazar/Downloads/TunesKitMusicConverter/Disco Pop(1).mp3" WAVE
		INDEX 01 00:34:59
	TRACK 11 AUDIO
		TITLE "DO 2 U"
		PERFORMER "Bryan Softwell"
		FILE "/Users/benlazar/Downloads/TunesKitMusicConverter/DO 2 U(1).mp3" WAVE
		INDEX 01 00:38:17
	TRACK 12 AUDIO
		TITLE "No Sleep Club - Extended Mix"
		PERFORMER "Jay de Lys"
		FILE "/Users/benlazar/Downloads/TunesKitMusicConverter/No Sleep Club - Extended Mix(1).mp3" WAVE
		INDEX 01 00:41:47
	TRACK 13 AUDIO
		TITLE "Break It Down"
		PERFORMER "Party Pupils"
		FILE "/Users/benlazar/Downloads/TunesKitMusicConverter/Break It Down(1).mp3" WAVE
		INDEX 01 00:46:53
	TRACK 14 AUDIO
		TITLE "Lose Control (feat. Guilty Empress)"
		PERFORMER "OFFAIAH, Guilty Empress"
		FILE "/Users/benlazar/Downloads/TunesKitMusicConverter/Lose Control (feat. Guilty Empress)(1).mp3" WAVE
		INDEX 01 00:50:03
	TRACK 15 AUDIO
		TITLE "Feel Alive (with Sky Blu of LMFAO)"
		PERFORMER "TELYKast, Sky Blu"
		FILE "/Users/benlazar/Downloads/TunesKitMusicConverter/Feel Alive (with Sky Blu of LMFAO)(1).mp3" WAVE
		INDEX 01 00:52:59
	TRACK 16 AUDIO
		TITLE "Mi Vida - Extended Mix"
		PERFORMER "Simon Fava, Yvvan Back"
		FILE "/Users/benlazar/Downloads/TunesKitMusicConverter/Mi Vida - Extended Mix(1).mp3" WAVE
		INDEX 01 00:55:52
	TRACK 17 AUDIO
		TITLE "Tangana Africana - Original Mix"
		PERFORMER "Oravla Ziur, Saul Antolin"
		FILE "/Users/benlazar/Downloads/TunesKitMusicConverter/Tangana Africana - Original Mix(1).mp3" WAVE
		INDEX 01 01:01:02
	TRACK 18 AUDIO
		TITLE "Love You So - Original Mix"
		PERFORMER "Maickel Telussa, Lissat, Block & Crown"
		FILE "/Users/benlazar/Downloads/TunesKitMusicConverter/Love You So - Original Mix(1).mp3" WAVE
		INDEX 01 01:05:27
	TRACK 19 AUDIO
		TITLE "Can't Get You Out Of My Head"
		PERFORMER "Block & Crown, Omni Waters"
		FILE "/Users/benlazar/Downloads/TunesKitMusicConverter/Can't Get You Out Of My Head(1).mp3" WAVE
		INDEX 01 01:09:42
	TRACK 20 AUDIO
		TITLE "Music and Love"
		PERFORMER "Paul Parsons, Bronx Cheer"
		FILE "/Users/benlazar/Downloads/TunesKitMusicConverter/Music and Love(1).mp3" WAVE
		INDEX 01 01:13:50
	TRACK 21 AUDIO
		TITLE "Stevie Got the Groove - Nu Disco Bounce"
		PERFORMER "Block & Crown, Maickel Telussa"
		FILE "/Users/benlazar/Downloads/TunesKitMusicConverter/Stevie Got the Groove - Nu Disco Bounce(1).mp3" WAVE
		INDEX 01 01:18:53
